<!-- public/favicon.svg -->
<svg xmlns="http://www.w3.org/2000/svg" viewBox="0 0 512 512">
  <path d="M478.2 356.2c-12.2 20.5-34.2 35.8-58.2 35.8-21.8 0-41.3-11.3-53.3-29.1l-10.7-16.1c-7.5-11.3-20.1-18.1-33.7-18.1H189.7c-13.6 0-26.2 6.8-33.7 18.1l-10.7 16.1c-12 17.8-31.5 29.1-53.3 29.1-24 0-46-15.3-58.2-35.8C11.2 325.2 0 288.3 0 248.4 0 141.8 86.2 56 192.7 56h126.6C425.8 56 512 141.8 512 248.4c0 39.9-11.2 76.8-33.8 107.8zM192 208c0-8.8-7.2-16-16-16h-32v-32c0-8.8-7.2-16-16-16s-16 7.2-16 16v32h-32c-8.8 0-16 7.2-16 16s7.2 16 16 16h32v32c0 8.8 7.2 16 16 16s16-7.2 16-16v-32h32c8.8 0 16-7.2 16-16zm152 16c13.3 0 24-10.7 24-24s-10.7-24-24-24-24 10.7-24 24 10.7 24 24 24zm48 32c13.3 0 24-10.7 24-24s-10.7-24-24-24-24 10.7-24 24 10.7 24 24 24z"/>
</svg>
